{
 "cells": [
  {
   "cell_type": "markdown",
   "metadata": {},
   "source": [
    "# 9.4.2 動画をframeごとに画像データに変換\n",
    "\n",
    "本ファイルでは、ダウンロードした動画をframeごとにjpeg形式の画像データに変換します。\n"
   ]
  },
  {
   "cell_type": "markdown",
   "metadata": {},
   "source": [
    "## 事前準備\n",
    "\n",
    "ffmepgが入っていない場合には、\n",
    "以下のコマンドをターミナルで実行し、Ubuntuにてffmpegをインストールします。\n",
    "\n",
    "- sudo apt install ffmpeg\n"
   ]
  },
  {
   "cell_type": "code",
   "execution_count": 2,
   "metadata": {},
   "outputs": [
    {
     "name": "stdout",
     "output_type": "stream",
     "text": [
      "['arm wrestling', 'bungee jumping']\n",
      "ffmpeg -i \"./data/kinetics_videos/arm wrestling/5JzkrOVhPOw_000027_000037.mp4\" -vf scale=-1:256 \"./data/kinetics_videos/arm wrestling/5JzkrOVhPOw_000027_000037/image_%05d.jpg\"\n",
      "\n",
      "\n",
      "ffmpeg -i \"./data/kinetics_videos/arm wrestling/BdMiTo_OtnU_000024_000034.mp4\" -vf scale=-1:256 \"./data/kinetics_videos/arm wrestling/BdMiTo_OtnU_000024_000034/image_%05d.jpg\"\n"
     ]
    },
    {
     "name": "stderr",
     "output_type": "stream",
     "text": [
      "ffmpeg version 4.3 Copyright (c) 2000-2020 the FFmpeg developers\n",
      "  built with gcc 7.3.0 (crosstool-NG 1.23.0.449-a04d0)\n",
      "  configuration: --prefix=/opt/conda/conda-bld/ffmpeg_1597178665428/_h_env_placehold_placehold_placehold_placehold_placehold_placehold_placehold_placehold_placehold_placehold_placehold_placehold_placehold_placehold_placehold_placehold_placehold_placehold_placehold_placehold_placeh --cc=/opt/conda/conda-bld/ffmpeg_1597178665428/_build_env/bin/x86_64-conda_cos6-linux-gnu-cc --disable-doc --disable-openssl --enable-avresample --enable-gnutls --enable-hardcoded-tables --enable-libfreetype --enable-libopenh264 --enable-pic --enable-pthreads --enable-shared --disable-static --enable-version3 --enable-zlib --enable-libmp3lame\n",
      "  libavutil      56. 51.100 / 56. 51.100\n",
      "  libavcodec     58. 91.100 / 58. 91.100\n",
      "  libavformat    58. 45.100 / 58. 45.100\n",
      "  libavdevice    58. 10.100 / 58. 10.100\n",
      "  libavfilter     7. 85.100 /  7. 85.100\n",
      "  libavresample   4.  0.  0 /  4.  0.  0\n",
      "  libswscale      5.  7.100 /  5.  7.100\n",
      "  libswresample   3.  7.100 /  3.  7.100\n",
      "Input #0, mov,mp4,m4a,3gp,3g2,mj2, from './data/kinetics_videos/arm wrestling/5JzkrOVhPOw_000027_000037.mp4':\n",
      "  Metadata:\n",
      "    major_brand     : isom\n",
      "    minor_version   : 512\n",
      "    compatible_brands: isomiso2avc1mp41\n",
      "    encoder         : Lavf58.45.100\n",
      "  Duration: 00:00:00.00, bitrate: N/A\n",
      "Output #0, image2, to './data/kinetics_videos/arm wrestling/5JzkrOVhPOw_000027_000037/image_%05d.jpg':\n",
      "Output file #0 does not contain any stream\n",
      "ffmpeg version 4.3 Copyright (c) 2000-2020 the FFmpeg developers\n",
      "  built with gcc 7.3.0 (crosstool-NG 1.23.0.449-a04d0)\n",
      "  configuration: --prefix=/opt/conda/conda-bld/ffmpeg_1597178665428/_h_env_placehold_placehold_placehold_placehold_placehold_placehold_placehold_placehold_placehold_placehold_placehold_placehold_placehold_placehold_placehold_placehold_placehold_placehold_placehold_placehold_placeh --cc=/opt/conda/conda-bld/ffmpeg_1597178665428/_build_env/bin/x86_64-conda_cos6-linux-gnu-cc --disable-doc --disable-openssl --enable-avresample --enable-gnutls --enable-hardcoded-tables --enable-libfreetype --enable-libopenh264 --enable-pic --enable-pthreads --enable-shared --disable-static --enable-version3 --enable-zlib --enable-libmp3lame\n",
      "  libavutil      56. 51.100 / 56. 51.100\n",
      "  libavcodec     58. 91.100 / 58. 91.100\n",
      "  libavformat    58. 45.100 / 58. 45.100\n",
      "  libavdevice    58. 10.100 / 58. 10.100\n",
      "  libavfilter     7. 85.100 /  7. 85.100\n",
      "  libavresample   4.  0.  0 /  4.  0.  0\n",
      "  libswscale      5.  7.100 /  5.  7.100\n",
      "  libswresample   3.  7.100 /  3.  7.100\n",
      "Input #0, mov,mp4,m4a,3gp,3g2,mj2, from './data/kinetics_videos/arm wrestling/BdMiTo_OtnU_000024_000034.mp4':\n",
      "  Metadata:\n",
      "    major_brand     : isom\n",
      "    minor_version   : 512\n",
      "    compatible_brands: isomiso2avc1mp41\n",
      "    encoder         : Lavf58.45.100\n",
      "  Duration: 00:00:10.01, start: 0.009002, bitrate: 1357 kb/s\n",
      "    Stream #0:0(und): Video: h264 (High) (avc1 / 0x31637661), yuv420p(tv, bt709), 1280x720 [SAR 1:1 DAR 16:9], 1661 kb/s, 30 fps, 30 tbr, 15360 tbn, 60 tbc (default)\n",
      "    Metadata:\n",
      "      handler_name    : ISO Media file produced by Google Inc.\n",
      "    Stream #0:1(und): Audio: aac (LC) (mp4a / 0x6134706D), 44100 Hz, stereo, fltp, 127 kb/s (default)\n",
      "    Metadata:\n",
      "      handler_name    : ISO Media file produced by Google Inc.\n",
      "Stream mapping:\n",
      "  Stream #0:0 -> #0:0 (h264 (native) -> mjpeg (native))\n",
      "Press [q] to stop, [?] for help\n",
      "[swscaler @ 0x5648985c0180] deprecated pixel format used, make sure you did set range correctly\n",
      "Output #0, image2, to './data/kinetics_videos/arm wrestling/BdMiTo_OtnU_000024_000034/image_%05d.jpg':\n",
      "  Metadata:\n",
      "    major_brand     : isom\n",
      "    minor_version   : 512\n",
      "    compatible_brands: isomiso2avc1mp41\n",
      "    encoder         : Lavf58.45.100\n",
      "    Stream #0:0(und): Video: mjpeg, yuvj420p(pc), 455x256 [SAR 4096:4095 DAR 16:9], q=2-31, 200 kb/s, 30 fps, 30 tbn, 30 tbc (default)\n",
      "    Metadata:\n",
      "      handler_name    : ISO Media file produced by Google Inc.\n",
      "      encoder         : Lavc58.91.100 mjpeg\n",
      "    Side data:\n",
      "      cpb: bitrate max/min/avg: 0/0/200000 buffer size: 0 vbv_delay: N/A\n",
      "frame=  302 fps=258 q=24.8 Lsize=N/A time=00:00:10.06 bitrate=N/A dup=81 drop=0 speed=8.59x    \n",
      "video:1559kB audio:0kB subtitle:0kB other streams:0kB global headers:0kB muxing overhead: unknown\n",
      "ffmpeg version 4.3 Copyright (c) 2000-2020 the FFmpeg developers\n",
      "  built with gcc 7.3.0 (crosstool-NG 1.23.0.449-a04d0)\n",
      "  configuration: --prefix=/opt/conda/conda-bld/ffmpeg_1597178665428/_h_env_placehold_placehold_placehold_placehold_placehold_placehold_placehold_placehold_placehold_placehold_placehold_placehold_placehold_placehold_placehold_placehold_placehold_placehold_placehold_placehold_placeh --cc=/opt/conda/conda-bld/ffmpeg_1597178665428/_build_env/bin/x86_64-conda_cos6-linux-gnu-cc --disable-doc --disable-openssl --enable-avresample --enable-gnutls --enable-hardcoded-tables --enable-libfreetype --enable-libopenh264 --enable-pic --enable-pthreads --enable-shared --disable-static --enable-version3 --enable-zlib --enable-libmp3lame\n",
      "  libavutil      56. 51.100 / 56. 51.100\n",
      "  libavcodec     58. 91.100 / 58. 91.100\n",
      "  libavformat    58. 45.100 / 58. 45.100\n",
      "  libavdevice    58. 10.100 / 58. 10.100\n",
      "  libavfilter     7. 85.100 /  7. 85.100\n",
      "  libavresample   4.  0.  0 /  4.  0.  0\n",
      "  libswscale      5.  7.100 /  5.  7.100\n",
      "  libswresample   3.  7.100 /  3.  7.100\n",
      "Input #0, mov,mp4,m4a,3gp,3g2,mj2, from './data/kinetics_videos/arm wrestling/C4lCVBZ3ux0_000028_000038.mp4':\n",
      "  Metadata:\n",
      "    major_brand     : isom\n",
      "    minor_version   : 512\n",
      "    compatible_brands: isomiso2avc1mp41\n",
      "    encoder         : Lavf58.45.100\n",
      "  Duration: 00:00:10.01, start: 0.002993, bitrate: 2380 kb/s\n",
      "    Stream #0:0(und): Video: h264 (High) (avc1 / 0x31637661), yuv420p(tv, bt709), 1920x1080 [SAR 1:1 DAR 16:9], 2673 kb/s, 29.76 fps, 29.76 tbr, 18631 tbn, 59.52 tbc (default)\n",
      "    Metadata:\n",
      "      handler_name    : ISO Media file produced by Google Inc.\n",
      "    Stream #0:1(und): Audio: aac (LC) (mp4a / 0x6134706D), 44100 Hz, stereo, fltp, 127 kb/s (default)\n",
      "    Metadata:\n",
      "      handler_name    : ISO Media file produced by Google Inc.\n",
      "Stream mapping:\n",
      "  Stream #0:0 -> #0:0 (h264 (native) -> mjpeg (native))\n",
      "Press [q] to stop, [?] for help\n",
      "[h264 @ 0x5616267810c0] mmco: unref short failure\n"
     ]
    },
    {
     "name": "stdout",
     "output_type": "stream",
     "text": [
      "\n",
      "\n",
      "ffmpeg -i \"./data/kinetics_videos/arm wrestling/C4lCVBZ3ux0_000028_000038.mp4\" -vf scale=-1:256 \"./data/kinetics_videos/arm wrestling/C4lCVBZ3ux0_000028_000038/image_%05d.jpg\"\n"
     ]
    },
    {
     "name": "stderr",
     "output_type": "stream",
     "text": [
      "[swscaler @ 0x561627292340] deprecated pixel format used, make sure you did set range correctly\n",
      "Output #0, image2, to './data/kinetics_videos/arm wrestling/C4lCVBZ3ux0_000028_000038/image_%05d.jpg':\n",
      "  Metadata:\n",
      "    major_brand     : isom\n",
      "    minor_version   : 512\n",
      "    compatible_brands: isomiso2avc1mp41\n",
      "    encoder         : Lavf58.45.100\n",
      "    Stream #0:0(und): Video: mjpeg, yuvj420p(pc), 455x256 [SAR 4096:4095 DAR 16:9], q=2-31, 200 kb/s, 29.76 fps, 29.76 tbn, 29.76 tbc (default)\n",
      "    Metadata:\n",
      "      handler_name    : ISO Media file produced by Google Inc.\n",
      "      encoder         : Lavc58.91.100 mjpeg\n",
      "    Side data:\n",
      "      cpb: bitrate max/min/avg: 0/0/200000 buffer size: 0 vbv_delay: N/A\n",
      "frame=  300 fps=202 q=24.8 Lsize=N/A time=00:00:10.07 bitrate=N/A dup=50 drop=0 speed=6.79x    \n",
      "video:1643kB audio:0kB subtitle:0kB other streams:0kB global headers:0kB muxing overhead: unknown\n",
      "ffmpeg version 4.3 Copyright (c) 2000-2020 the FFmpeg developers\n",
      "  built with gcc 7.3.0 (crosstool-NG 1.23.0.449-a04d0)\n",
      "  configuration: --prefix=/opt/conda/conda-bld/ffmpeg_1597178665428/_h_env_placehold_placehold_placehold_placehold_placehold_placehold_placehold_placehold_placehold_placehold_placehold_placehold_placehold_placehold_placehold_placehold_placehold_placehold_placehold_placehold_placeh --cc=/opt/conda/conda-bld/ffmpeg_1597178665428/_build_env/bin/x86_64-conda_cos6-linux-gnu-cc --disable-doc --disable-openssl --enable-avresample --enable-gnutls --enable-hardcoded-tables --enable-libfreetype --enable-libopenh264 --enable-pic --enable-pthreads --enable-shared --disable-static --enable-version3 --enable-zlib --enable-libmp3lame\n",
      "  libavutil      56. 51.100 / 56. 51.100\n",
      "  libavcodec     58. 91.100 / 58. 91.100\n",
      "  libavformat    58. 45.100 / 58. 45.100\n",
      "  libavdevice    58. 10.100 / 58. 10.100\n",
      "  libavfilter     7. 85.100 /  7. 85.100\n",
      "  libavresample   4.  0.  0 /  4.  0.  0\n",
      "  libswscale      5.  7.100 /  5.  7.100\n",
      "  libswresample   3.  7.100 /  3.  7.100\n",
      "Input #0, mov,mp4,m4a,3gp,3g2,mj2, from './data/kinetics_videos/arm wrestling/ehLnj7pXnYE_000027_000037.mp4':\n",
      "  Metadata:\n",
      "    major_brand     : isom\n",
      "    minor_version   : 512\n",
      "    compatible_brands: isomiso2avc1mp41\n",
      "    encoder         : Lavf58.45.100\n",
      "  Duration: 00:00:10.01, start: 0.003991, bitrate: 669 kb/s\n",
      "    Stream #0:0(und): Video: h264 (Main) (avc1 / 0x31637661), yuv420p, 854x480, 766 kb/s, 29.97 fps, 29.97 tbr, 90k tbn, 59.94 tbc (default)\n",
      "    Metadata:\n",
      "      handler_name    : VideoHandler\n",
      "    Stream #0:1(und): Audio: aac (LC) (mp4a / 0x6134706D), 44100 Hz, stereo, fltp, 125 kb/s (default)\n",
      "    Metadata:\n",
      "      handler_name    : SoundHandler\n",
      "Stream mapping:\n",
      "  Stream #0:0 -> #0:0 (h264 (native) -> mjpeg (native))\n",
      "Press [q] to stop, [?] for help\n",
      "[swscaler @ 0x559abed38a40] deprecated pixel format used, make sure you did set range correctly\n",
      "Output #0, image2, to './data/kinetics_videos/arm wrestling/ehLnj7pXnYE_000027_000037/image_%05d.jpg':\n",
      "  Metadata:\n",
      "    major_brand     : isom\n",
      "    minor_version   : 512\n",
      "    compatible_brands: isomiso2avc1mp41\n",
      "    encoder         : Lavf58.45.100\n",
      "    Stream #0:0(und): Video: mjpeg, yuvj420p(pc), 455x256, q=2-31, 200 kb/s, 29.97 fps, 29.97 tbn, 29.97 tbc (default)\n",
      "    Metadata:\n",
      "      handler_name    : VideoHandler\n",
      "      encoder         : Lavc58.91.100 mjpeg\n",
      "    Side data:\n",
      "      cpb: bitrate max/min/avg: 0/0/200000 buffer size: 0 vbv_delay: N/A\n"
     ]
    },
    {
     "name": "stdout",
     "output_type": "stream",
     "text": [
      "\n",
      "\n",
      "ffmpeg -i \"./data/kinetics_videos/arm wrestling/ehLnj7pXnYE_000027_000037.mp4\" -vf scale=-1:256 \"./data/kinetics_videos/arm wrestling/ehLnj7pXnYE_000027_000037/image_%05d.jpg\"\n"
     ]
    },
    {
     "name": "stderr",
     "output_type": "stream",
     "text": [
      "frame=  302 fps=0.0 q=24.8 Lsize=N/A time=00:00:10.07 bitrate=N/A dup=92 drop=0 speed=11.5x    \n",
      "video:1660kB audio:0kB subtitle:0kB other streams:0kB global headers:0kB muxing overhead: unknown\n",
      "ffmpeg version 4.3 Copyright (c) 2000-2020 the FFmpeg developers\n",
      "  built with gcc 7.3.0 (crosstool-NG 1.23.0.449-a04d0)\n",
      "  configuration: --prefix=/opt/conda/conda-bld/ffmpeg_1597178665428/_h_env_placehold_placehold_placehold_placehold_placehold_placehold_placehold_placehold_placehold_placehold_placehold_placehold_placehold_placehold_placehold_placehold_placehold_placehold_placehold_placehold_placeh --cc=/opt/conda/conda-bld/ffmpeg_1597178665428/_build_env/bin/x86_64-conda_cos6-linux-gnu-cc --disable-doc --disable-openssl --enable-avresample --enable-gnutls --enable-hardcoded-tables --enable-libfreetype --enable-libopenh264 --enable-pic --enable-pthreads --enable-shared --disable-static --enable-version3 --enable-zlib --enable-libmp3lame\n",
      "  libavutil      56. 51.100 / 56. 51.100\n",
      "  libavcodec     58. 91.100 / 58. 91.100\n",
      "  libavformat    58. 45.100 / 58. 45.100\n",
      "  libavdevice    58. 10.100 / 58. 10.100\n",
      "  libavfilter     7. 85.100 /  7. 85.100\n",
      "  libavresample   4.  0.  0 /  4.  0.  0\n",
      "  libswscale      5.  7.100 /  5.  7.100\n",
      "  libswresample   3.  7.100 /  3.  7.100\n",
      "Input #0, mov,mp4,m4a,3gp,3g2,mj2, from './data/kinetics_videos/bungee jumping/TUvSX0pYu4o_000002_000012.mp4':\n",
      "  Metadata:\n",
      "    major_brand     : isom\n",
      "    minor_version   : 512\n",
      "    compatible_brands: isomiso2avc1mp41\n",
      "    encoder         : Lavf58.45.100\n",
      "  Duration: 00:00:09.99, start: 0.020000, bitrate: 3236 kb/s\n",
      "    Stream #0:0(und): Video: h264 (High) (avc1 / 0x31637661), yuv420p(tv, bt709), 1920x1080 [SAR 1:1 DAR 16:9], 4618 kb/s, 29.97 fps, 29.97 tbr, 30k tbn, 59.94 tbc (default)\n",
      "    Metadata:\n",
      "      handler_name    : ISO Media file produced by Google Inc.\n",
      "    Stream #0:1(und): Audio: aac (LC) (mp4a / 0x6134706D), 44100 Hz, stereo, fltp, 127 kb/s (default)\n",
      "    Metadata:\n",
      "      handler_name    : ISO Media file produced by Google Inc.\n",
      "Stream mapping:\n",
      "  Stream #0:0 -> #0:0 (h264 (native) -> mjpeg (native))\n",
      "Press [q] to stop, [?] for help\n",
      "[swscaler @ 0x5643c212ddc0] deprecated pixel format used, make sure you did set range correctly\n",
      "Output #0, image2, to './data/kinetics_videos/bungee jumping/TUvSX0pYu4o_000002_000012/image_%05d.jpg':\n",
      "  Metadata:\n",
      "    major_brand     : isom\n",
      "    minor_version   : 512\n",
      "    compatible_brands: isomiso2avc1mp41\n",
      "    encoder         : Lavf58.45.100\n",
      "    Stream #0:0(und): Video: mjpeg, yuvj420p(pc), 455x256 [SAR 4096:4095 DAR 16:9], q=2-31, 200 kb/s, 29.97 fps, 29.97 tbn, 29.97 tbc (default)\n",
      "    Metadata:\n",
      "      handler_name    : ISO Media file produced by Google Inc.\n",
      "      encoder         : Lavc58.91.100 mjpeg\n",
      "    Side data:\n",
      "      cpb: bitrate max/min/avg: 0/0/200000 buffer size: 0 vbv_delay: N/A\n"
     ]
    },
    {
     "name": "stdout",
     "output_type": "stream",
     "text": [
      "\n",
      "\n",
      "ffmpeg -i \"./data/kinetics_videos/bungee jumping/TUvSX0pYu4o_000002_000012.mp4\" -vf scale=-1:256 \"./data/kinetics_videos/bungee jumping/TUvSX0pYu4o_000002_000012/image_%05d.jpg\"\n"
     ]
    },
    {
     "name": "stderr",
     "output_type": "stream",
     "text": [
      "frame=  237 fps=236 q=24.8 size=N/A time=00:00:07.90 bitrate=N/A dup=99 drop=0 speed=7.88x    \r"
     ]
    },
    {
     "name": "stdout",
     "output_type": "stream",
     "text": [
      "\n",
      "\n",
      "動画ファイルを画像ファイルに変換しました。\n"
     ]
    },
    {
     "name": "stderr",
     "output_type": "stream",
     "text": [
      "frame=  300 fps=221 q=24.8 Lsize=N/A time=00:00:10.01 bitrate=N/A dup=99 drop=0 speed=7.38x    \n",
      "video:1744kB audio:0kB subtitle:0kB other streams:0kB global headers:0kB muxing overhead: unknown\n"
     ]
    }
   ],
   "source": [
    "import os\n",
    "import subprocess  # ターミナルで実行するコマンドを実行できる\n",
    "\n",
    "\n",
    "# 動画が保存されたフォルダ「kinetics_videos」にある、クラスの種類とパスを取得\n",
    "dir_path = './data/kinetics_videos'\n",
    "class_list = os.listdir(path=dir_path)\n",
    "print(class_list)\n",
    "\n",
    "# 各クラスの動画ファイルを画像ファイルに変換する\n",
    "for class_list_i in (class_list):  # クラスごとのループ\n",
    "\n",
    "    # クラスのフォルダへのパスを取得\n",
    "    class_path = os.path.join(dir_path, class_list_i)\n",
    "\n",
    "    # 各クラスのフォルダ内の動画ファイルをひとつずつ処理するループ\n",
    "    for file_name in os.listdir(class_path):\n",
    "\n",
    "        # ファイル名と拡張子に分割\n",
    "        name, ext = os.path.splitext(file_name)\n",
    "\n",
    "        # mp4ファイルでない、フォルダなどは処理しない\n",
    "        if ext != '.mp4':\n",
    "            continue\n",
    "\n",
    "        # 動画ファイルを画像に分割して保存するフォルダ名を取得\n",
    "        dst_directory_path = os.path.join(class_path, name)\n",
    "\n",
    "        # 上記の画像保存フォルダがなければ作成\n",
    "        if not os.path.exists(dst_directory_path):\n",
    "            os.mkdir(dst_directory_path)\n",
    "\n",
    "        # 動画ファイルへのパスを取得\n",
    "        video_file_path = os.path.join(class_path, file_name)\n",
    "\n",
    "        # ffmpegを実行させ、動画ファイルをjpgにする （高さは256ピクセルで幅はアスペクト比を変えない）\n",
    "        # kineticsの動画の場合10秒になっており、大体300ファイルになる（30 frames /sec）\n",
    "        cmd = 'ffmpeg -i \\\"{}\\\" -vf scale=-1:256 \\\"{}/image_%05d.jpg\\\"'.format(\n",
    "            video_file_path, dst_directory_path)\n",
    "        print(cmd)\n",
    "        subprocess.call(cmd, shell=True)\n",
    "        print('\\n')\n",
    "\n",
    "print(\"動画ファイルを画像ファイルに変換しました。\")\n"
   ]
  },
  {
   "cell_type": "markdown",
   "metadata": {},
   "source": [
    "以上"
   ]
  },
  {
   "cell_type": "markdown",
   "metadata": {},
   "source": [
    "5JzkrOVhPOw_000027_000037.mp4\n",
    "\n",
    "が画像に変換できない"
   ]
  },
  {
   "cell_type": "markdown",
   "metadata": {},
   "source": []
  }
 ],
 "metadata": {
  "kernelspec": {
   "display_name": "base",
   "language": "python",
   "name": "python3"
  },
  "language_info": {
   "codemirror_mode": {
    "name": "ipython",
    "version": 3
   },
   "file_extension": ".py",
   "mimetype": "text/x-python",
   "name": "python",
   "nbconvert_exporter": "python",
   "pygments_lexer": "ipython3",
   "version": "3.10.14"
  }
 },
 "nbformat": 4,
 "nbformat_minor": 2
}
